<svg version="1.1" viewBox="0.0 0.0 1241.0 767.0" fill="none" stroke="none" stroke-linecap="square" stroke-miterlimit="10" width="1241" height="767" xmlns:xlink="http://www.w3.org/1999/xlink" xmlns="http://www.w3.org/2000/svg"><path fill="#ffffff" d="M0 0L1241.0 0L1241.0 767.0L0 767.0L0 0Z" fill-rule="nonzero"/><path fill="#4285f4" d="M620.5 91.916664C738.76044 91.916664 847.27625 157.46837 902.303 262.14688C957.3298 366.82538 949.7991 493.37967 882.74664 590.7938L620.5 410.28333Z" fill-rule="nonzero"/><path fill="#ea4335" d="M882.74664 590.7938C828.7335 669.26434 742.4192 719.4242 647.4994 727.50305L620.5 410.28333Z" fill-rule="nonzero"/><path fill="#46bdc6" d="M514.4394 110.102585C548.50494 98.06647 584.37067 91.916664 620.5 91.916664L620.5 410.28333Z" fill-rule="nonzero"/><path fill="#ff6d01" d="M338.69702 262.14688C376.02756 191.13222 438.79352 136.82997 514.4394 110.102585L620.5 410.28333Z" fill-rule="nonzero"/><path fill="#34a853" d="M442.2227 674.05316C307.79108 583.19324 263.19852 405.7692 338.69702 262.14688L620.5 410.28333Z" fill-rule="nonzero"/><path fill="#fbbc04" d="M647.4994 727.50305C574.97565 733.6758 502.52655 714.81146 442.2227 674.05316L620.5 410.28333Z" fill-rule="nonzero"/><path fill="#1a1a1a" d="M42.959373 109.90104L47.178123 109.74479L47.178123 106.61979L45.459373 106.61979L45.459373 107.86979L44.13125 107.86979L44.13125 101.854164L47.178123 101.854164L47.178123 100.36979L43.975 100.447914L43.50625 98.96354Q48.0375 99.041664 51.084373 98.416664L52.1 99.822914Q52.178123 100.36979 51.63125 100.05729L48.50625 100.291664L48.50625 101.854164L51.63125 101.854164L51.63125 106.61979L48.50625 106.61979L48.50625 109.666664L50.928123 109.43229L49.75625 107.947914L51.00625 107.08854Q52.646873 108.80729 53.740623 110.760414L52.25625 111.697914L51.553123 110.52604L43.896873 111.541664Q43.81875 112.08854 43.50625 111.77604L42.959373 109.90104ZM55.303123 108.729164Q56.00625 110.447914 56.240623 107.479164L57.646873 108.65104Q57.334373 111.30729 56.709373 111.77604Q55.38125 112.791664 53.975 109.74479Q53.0375 107.71354 53.0375 103.885414L53.0375 97.322914L42.88125 97.322914L42.88125 105.83854Q42.88125 109.58854 40.225 112.322914L39.13125 110.83854Q41.31875 108.80729 41.31875 105.447914L41.31875 95.83854L54.6 95.83854L54.6 103.80729Q54.6 107.010414 55.303123 108.729164ZM50.303123 103.104164L48.50625 103.104164L48.50625 105.36979L50.303123 105.36979L50.303123 103.104164ZM47.178123 103.104164L45.459373 103.104164L45.459373 105.36979L47.178123 105.36979L47.178123 103.104164ZM72.725 108.65104L72.725 108.18229L69.2875 108.18229L69.2875 111.46354Q69.2875 112.71354 68.0375 112.71354L66.39687 112.71354L66.1625 110.99479L67.4125 110.99479Q67.725 110.99479 67.725 110.68229L67.725 108.18229L63.896873 108.18229L63.896873 108.729164L62.56875 108.729164L62.56875 104.11979L74.05312 104.11979L74.05312 108.65104L72.725 108.65104ZM66.08437 109.822914Q66.1625 110.21354 65.61562 110.05729Q63.584373 111.61979 60.69375 112.635414L59.990623 110.99479Q63.115623 109.822914 64.75625 108.49479L66.08437 109.822914ZM59.2875 101.77604L67.64687 101.77604L67.64687 100.83854L64.99062 100.83854L62.490623 100.83854L62.490623 95.05729L74.20937 95.05729L74.20937 100.83854L69.20937 100.83854L69.20937 101.77604L77.17812 101.77604L77.17812 103.02604L59.2875 103.02604L59.2875 101.77604ZM63.81875 96.30729L63.81875 97.322914L72.88125 97.322914L72.88125 96.30729L63.81875 96.30729ZM72.88125 98.572914L63.81875 98.572914L63.81875 99.58854L72.88125 99.58854L72.88125 98.572914ZM72.725 105.36979L63.896873 105.36979L63.896873 106.93229L72.725 106.93229L72.725 105.36979ZM75.77187 112.55729Q72.33437 111.541664 70.5375 109.90104L71.70937 108.80729Q73.74062 110.36979 76.63125 110.99479L75.77187 112.55729Z" fill-rule="nonzero"/><path fill="#9e9e9e" d="M39.178123 134.16667L41.021873 134.01042Q41.225 135.35417 41.975 136.04167Q42.725 136.71355 43.7875 136.71355Q45.053123 136.71355 45.928123 135.76042Q46.803123 134.8073 46.803123 133.21355Q46.803123 131.71355 45.959373 130.85417Q45.115623 129.97917 43.75625 129.97917Q42.896873 129.97917 42.209373 130.3698Q41.5375 130.7448 41.146873 131.3698L39.490623 131.15105L40.88125 123.79167L48.00625 123.79167L48.00625 125.47917L42.2875 125.47917L41.521873 129.32292Q42.803123 128.41667 44.225 128.41667Q46.1 128.41667 47.38125 129.72917Q48.678123 131.02605 48.678123 133.0573Q48.678123 135.01042 47.5375 136.41667Q46.1625 138.16667 43.7875 138.16667Q41.834373 138.16667 40.584373 137.07292Q39.35 135.97917 39.178123 134.16667ZM51.1625 137.91667L51.1625 135.91667L53.1625 135.91667L53.1625 137.91667L51.1625 137.91667ZM61.81875 137.91667L61.81875 134.4948L55.6 134.4948L55.6 132.8698L62.13125 123.60417L63.56875 123.60417L63.56875 132.8698L65.50625 132.8698L65.50625 134.4948L63.56875 134.4948L63.56875 137.91667L61.81875 137.91667ZM61.81875 132.8698L61.81875 126.41667L57.334373 132.8698L61.81875 132.8698ZM67.50625 127.04167Q67.50625 125.51042 68.27187 124.4323Q69.05312 123.35417 70.52187 123.35417Q71.86562 123.35417 72.74062 124.32292Q73.63125 125.27605 73.63125 127.15105Q73.63125 128.96355 72.74062 129.94792Q71.85 130.91667 70.5375 130.91667Q69.24062 130.91667 68.36562 129.96355Q67.50625 128.9948 67.50625 127.04167ZM70.56875 124.57292Q69.9125 124.57292 69.475 125.13542Q69.05312 125.69792 69.05312 127.21355Q69.05312 128.58855 69.49062 129.15105Q69.92812 129.71355 70.56875 129.71355Q71.24062 129.71355 71.6625 129.15105Q72.1 128.57292 72.1 127.07292Q72.1 125.6823 71.6625 125.13542Q71.225 124.57292 70.56875 124.57292ZM70.58437 138.44792L78.4125 123.35417L79.83437 123.35417L72.0375 138.44792L70.58437 138.44792ZM76.77187 134.5573Q76.77187 133.01042 77.5375 131.94792Q78.31875 130.8698 79.7875 130.8698Q81.13125 130.8698 82.00625 131.83855Q82.89687 132.79167 82.89687 134.66667Q82.89687 136.47917 82.00625 137.46355Q81.11562 138.44792 79.80312 138.44792Q78.50625 138.44792 77.63125 137.47917Q76.77187 136.4948 76.77187 134.5573ZM79.83437 132.08855Q79.17812 132.08855 78.74062 132.65105Q78.30312 133.21355 78.30312 134.72917Q78.30312 136.10417 78.74062 136.66667Q79.17812 137.22917 79.83437 137.22917Q80.50625 137.22917 80.92812 136.66667Q81.36562 136.10417 81.36562 134.58855Q81.36562 133.21355 80.92812 132.65105Q80.49062 132.08855 79.83437 132.08855Z" fill-rule="nonzero"/><path stroke="#757575" stroke-width="1.0" stroke-linecap="butt" d="M38.35 117.416664L296.13333 117.416664L569.386 112.18545" fill-rule="nonzero"/><path fill="#9e9e9e" d="M571.386 112.18545C571.386 111.08087 570.49054 110.18545 569.386 110.18545C568.28143 110.18545 567.386 111.08087 567.386 112.18545C567.386 113.290016 568.28143 114.18545 569.386 114.18545C570.49054 114.18545 571.386 113.290016 571.386 112.18545" fill-rule="nonzero"/><path fill="#1a1a1a" d="M49.13125 169.97719Q45.85 168.57094 40.303123 167.71156L40.5375 165.83656Q45.38125 166.38344 49.678123 168.02406L49.13125 169.97719ZM50.06875 175.68031Q44.053123 173.41469 39.365623 172.78969L39.75625 170.75844Q45.85 171.61781 50.615623 173.57094L50.06875 175.68031ZM40.225 160.68031Q46.63125 161.38344 49.44375 162.47719L48.975 164.50844Q45.06875 163.10219 39.990623 162.71156L40.225 160.68031ZM65.49062 164.66469L70.1 164.66469L70.1 166.38344L65.56875 166.38344L65.56875 167.86781Q65.56875 173.72719 59.396873 176.22719L58.146873 174.82094Q63.771873 172.94594 63.771873 168.02406L63.771873 166.38344L58.615623 166.38344L58.69375 170.36781L56.975 170.36781L56.896873 166.38344L52.521873 166.38344L52.521873 164.66469L56.896873 164.66469L56.81875 160.52406L58.459373 160.52406Q59.240623 160.60219 58.5375 161.30531L58.615623 164.66469L63.69375 164.66469L63.69375 159.89906L65.4125 159.89906Q66.19375 159.97719 65.49062 160.68031L65.49062 164.66469ZM88.61562 171.38344Q86.0375 168.49281 83.14687 166.77406L84.24062 165.36781Q87.2875 166.93031 90.02187 169.89906L88.61562 171.38344ZM73.225 160.44594L89.63125 160.44594L89.63125 162.16469L82.83437 162.16469Q82.6 162.94594 82.13125 163.80531L82.13125 176.46156L80.33437 176.46156L80.33437 166.46156Q77.67812 169.82094 73.61562 171.61781L72.52187 169.82094Q78.30312 167.39906 80.88125 162.16469L73.225 162.16469L73.225 160.44594ZM95.725 165.21156L96.74062 165.44594Q97.20937 164.97719 98.225 163.10219L93.14687 163.10219L93.14687 161.61781L98.85 161.61781Q99.475 160.13344 99.7875 158.80531L101.50625 159.43031Q101.81875 159.74281 101.27187 159.82094Q101.11562 160.52406 100.56875 161.61781L109.63125 161.61781L109.63125 163.10219L99.94375 163.10219Q99.00625 165.21156 97.2875 167.47719L97.2875 176.69594L95.725 176.69594L95.725 168.96156Q94.70937 169.97719 92.83437 171.07094L92.05312 169.27406Q94.24062 168.25844 95.725 166.61781L95.725 165.21156ZM104.55312 164.19594Q105.17812 164.27406 104.63125 164.66469L104.63125 167.71156L108.61562 167.71156L108.61562 169.19594L104.63125 169.19594L104.63125 174.35219L109.7875 174.35219L109.7875 175.83656L97.99062 175.83656L97.99062 174.35219L103.06875 174.35219L103.06875 169.19594L98.77187 169.19594L98.77187 167.71156L103.06875 167.71156L103.06875 164.19594L104.55312 164.19594Z" fill-rule="nonzero"/><path fill="#9e9e9e" d="M45.803123 202.05531L44.0375 202.05531L44.0375 190.85219Q43.4125 191.46156 42.38125 192.07094Q41.35 192.66469 40.521873 192.97719L40.521873 191.27406Q42.00625 190.58656 43.1 189.60219Q44.209373 188.60219 44.6625 187.68031L45.803123 187.68031L45.803123 202.05531ZM56.803123 202.05531L55.0375 202.05531L55.0375 190.85219Q54.4125 191.46156 53.38125 192.07094Q52.35 192.66469 51.521873 192.97719L51.521873 191.27406Q53.00625 190.58656 54.1 189.60219Q55.209373 188.60219 55.6625 187.68031L56.803123 187.68031L56.803123 202.05531ZM62.1625 202.05531L62.1625 200.05531L64.1625 200.05531L64.1625 202.05531L62.1625 202.05531ZM67.44375 198.74281L69.13125 198.58656Q69.35 199.77406 69.94375 200.32094Q70.55312 200.85219 71.50625 200.85219Q72.31875 200.85219 72.92812 200.49281Q73.5375 200.11781 73.92812 199.49281Q74.31875 198.86781 74.58437 197.82094Q74.85 196.75844 74.85 195.66469Q74.85 195.55531 74.83437 195.32094Q74.30312 196.14906 73.39687 196.68031Q72.49062 197.19594 71.4125 197.19594Q69.64687 197.19594 68.4125 195.91469Q67.17812 194.61781 67.17812 192.50844Q67.17812 190.33656 68.45937 189.00844Q69.75625 187.68031 71.67812 187.68031Q73.08437 187.68031 74.24062 188.43031Q75.39687 189.18031 75.99062 190.57094Q76.6 191.96156 76.6 194.60219Q76.6 197.35219 75.99062 198.97719Q75.39687 200.60219 74.225 201.46156Q73.05312 202.30531 71.475 202.30531Q69.7875 202.30531 68.725 201.36781Q67.6625 200.43031 67.44375 198.74281ZM74.64687 192.43031Q74.64687 190.91469 73.83437 190.02406Q73.0375 189.13344 71.89687 189.13344Q70.725 189.13344 69.85 190.10219Q68.99062 191.05531 68.99062 192.57094Q68.99062 193.94594 69.80312 194.80531Q70.63125 195.64906 71.85 195.64906Q73.06875 195.64906 73.85 194.80531Q74.64687 193.94594 74.64687 192.43031ZM78.50625 191.18031Q78.50625 189.64906 79.27187 188.57094Q80.05312 187.49281 81.52187 187.49281Q82.86562 187.49281 83.74062 188.46156Q84.63125 189.41469 84.63125 191.28969Q84.63125 193.10219 83.74062 194.08656Q82.85 195.05531 81.5375 195.05531Q80.24062 195.05531 79.36562 194.10219Q78.50625 193.13344 78.50625 191.18031ZM81.56875 188.71156Q80.9125 188.71156 80.475 189.27406Q80.05312 189.83656 80.05312 191.35219Q80.05312 192.72719 80.49062 193.28969Q80.92812 193.85219 81.56875 193.85219Q82.24062 193.85219 82.6625 193.28969Q83.1 192.71156 83.1 191.21156Q83.1 189.82094 82.6625 189.27406Q82.225 188.71156 81.56875 188.71156ZM81.58437 202.58656L89.4125 187.49281L90.83437 187.49281L83.0375 202.58656L81.58437 202.58656ZM87.77187 198.69594Q87.77187 197.14906 88.5375 196.08656Q89.31875 195.00844 90.7875 195.00844Q92.13125 195.00844 93.00625 195.97719Q93.89687 196.93031 93.89687 198.80531Q93.89687 200.61781 93.00625 201.60219Q92.11562 202.58656 90.80312 202.58656Q89.50625 202.58656 88.63125 201.61781Q87.77187 200.63344 87.77187 198.69594ZM90.83437 196.22719Q90.17812 196.22719 89.74062 196.78969Q89.30312 197.35219 89.30312 198.86781Q89.30312 200.24281 89.74062 200.80531Q90.17812 201.36781 90.83437 201.36781Q91.50625 201.36781 91.92812 200.80531Q92.36562 200.24281 92.36562 198.72719Q92.36562 197.35219 91.92812 196.78969Q91.49062 196.22719 90.83437 196.22719Z" fill-rule="nonzero"/><path stroke="#757575" stroke-width="1.0" stroke-linecap="butt" d="M38.35 181.55531L296.13333 181.55531L422.61496 181.55531" fill-rule="nonzero"/><path fill="#9e9e9e" d="M424.61496 181.55531C424.61496 180.45074 423.7195 179.55531 422.61496 179.55531C421.51038 179.55531 420.61496 180.45074 420.61496 181.55531C420.61496 182.6599 421.51038 183.55531 422.61496 183.55531C423.7195 183.55531 424.61496 182.6599 424.61496 181.55531" fill-rule="nonzero"/><path fill="#1a1a1a" d="M49.13125 472.42767Q45.85 471.02142 40.303123 470.16205L40.5375 468.28705Q45.38125 468.83392 49.678123 470.47455L49.13125 472.42767ZM50.06875 478.1308Q44.053123 475.86517 39.365623 475.24017L39.75625 473.20892Q45.85 474.0683 50.615623 476.02142L50.06875 478.1308ZM40.225 463.1308Q46.63125 463.83392 49.44375 464.92767L48.975 466.95892Q45.06875 465.55267 39.990623 465.16205L40.225 463.1308ZM65.49062 467.11517L70.1 467.11517L70.1 468.83392L65.56875 468.83392L65.56875 470.3183Q65.56875 476.17767 59.396873 478.67767L58.146873 477.27142Q63.771873 475.39642 63.771873 470.47455L63.771873 468.83392L58.615623 468.83392L58.69375 472.8183L56.975 472.8183L56.896873 468.83392L52.521873 468.83392L52.521873 467.11517L56.896873 467.11517L56.81875 462.97455L58.459373 462.97455Q59.240623 463.05267 58.5375 463.7558L58.615623 467.11517L63.69375 467.11517L63.69375 462.34955L65.4125 462.34955Q66.19375 462.42767 65.49062 463.1308L65.49062 467.11517ZM81.58437 464.14642Q78.92812 464.61517 76.11562 464.84955L75.80312 463.20892Q81.19375 462.97455 82.6 462.42767L83.38125 462.11517L84.7875 463.59955Q85.25625 463.99017 84.475 464.14642Q81.35 466.5683 78.14687 469.0683Q82.99062 468.4433 88.45937 467.97455L88.45937 469.61517L85.49062 469.84955Q82.44375 470.08392 80.64687 471.8808Q79.70937 472.8183 79.70937 474.22455Q79.70937 475.3183 80.4125 476.02142Q81.58437 477.1933 85.33437 477.27142L84.63125 479.30267Q80.64687 478.99017 79.08437 477.42767Q77.9125 476.2558 77.9125 474.61517Q77.9125 472.66205 79.08437 471.49017Q79.70937 470.86517 80.64687 470.24017Q76.42812 470.78705 72.9125 471.41205L72.52187 469.6933Q74.1625 469.45892 75.725 469.22455Q77.83437 467.74017 81.58437 464.14642ZM100.13125 466.49017Q98.80312 474.30267 96.92812 476.17767Q95.9125 477.1933 94.81875 477.1933Q93.56875 477.1933 92.86562 476.49017Q90.99062 474.61517 90.99062 471.80267Q90.99062 468.36517 93.4125 465.9433Q96.06875 463.28705 99.89687 463.28705Q103.33437 463.28705 105.2875 465.24017Q107.475 467.42767 107.475 470.39642Q107.475 473.59955 105.44375 475.6308Q104.11562 476.95892 101.38125 478.20892L99.74062 476.5683Q102.475 475.70892 104.0375 474.14642Q105.52187 472.66205 105.52187 470.55267Q105.52187 468.05267 103.88125 466.41205Q102.24062 464.77142 98.725 464.92767L100.13125 465.6308Q101.06875 466.02142 100.13125 466.49017ZM98.33437 465.0058Q96.30312 465.47455 94.81875 466.95892Q92.7875 468.99017 92.7875 471.95892Q92.7875 473.7558 93.95937 474.92767Q94.19375 475.16205 94.6625 475.16205Q95.13125 475.16205 95.67812 474.61517Q97.475 472.8183 98.33437 465.0058ZM110.05312 470.16205Q113.02187 466.8808 113.725 461.41205L115.6 461.95892Q115.9125 462.27142 115.36562 462.34955Q115.13125 464.0683 114.27187 466.5683Q115.20937 466.80267 114.50625 467.1933L114.50625 479.14642L112.94375 479.14642L112.94375 469.30267Q112.39687 470.39642 111.38125 471.49017L110.05312 470.16205ZM128.4125 475.39642L128.25626 476.95892Q128.1 478.59955 126.5375 478.59955L118.4125 478.59955Q117.00625 478.59955 117.00625 477.27142L117.00625 469.6933L115.44375 470.16205L114.975 468.59955L117.00625 468.05267L117.00625 463.67767L118.49062 463.67767Q119.11562 463.7558 118.56875 464.14642L118.56875 467.58392L121.06875 466.8808L121.06875 461.64642L122.55312 461.64642Q123.17812 461.72455 122.63125 462.11517L122.63125 466.41205L125.44375 465.47455L125.67812 465.08392L127.1625 465.86517Q127.7875 466.09955 127.1625 466.41205L126.92812 472.74017Q126.85 474.22455 125.36562 474.22455L123.80312 474.22455L123.49062 472.74017L124.6625 472.74017Q125.36562 472.74017 125.36562 472.11517L125.52187 467.11517L122.63125 467.97455L122.63125 474.92767L121.06875 474.92767L121.06875 468.4433L118.56875 469.22455L118.56875 476.49017Q118.56875 477.11517 119.11562 477.11517L125.83437 477.11517Q126.45937 477.11517 126.5375 476.5683L126.69375 475.0058L128.4125 475.39642Z" fill-rule="nonzero"/><path fill="#9e9e9e" d="M48.4125 502.8183L48.4125 504.5058L38.959373 504.5058Q38.94375 503.86517 39.1625 503.28705Q39.521873 502.3183 40.31875 501.3808Q41.115623 500.4433 42.615623 499.20892Q44.959373 497.30267 45.771873 496.1933Q46.6 495.0683 46.6 494.0683Q46.6 493.02142 45.85 492.30267Q45.1 491.58392 43.896873 491.58392Q42.63125 491.58392 41.865623 492.34955Q41.1 493.11517 41.1 494.45892L39.2875 494.27142Q39.475 492.2558 40.678123 491.1933Q41.896873 490.1308 43.94375 490.1308Q45.990623 490.1308 47.19375 491.27142Q48.396873 492.41205 48.396873 494.09955Q48.396873 494.95892 48.0375 495.80267Q47.69375 496.6308 46.88125 497.55267Q46.06875 498.45892 44.178123 500.0683Q42.584373 501.39642 42.13125 501.86517Q41.69375 502.33392 41.396873 502.8183L48.4125 502.8183ZM50.19375 500.72455L51.94375 500.49017Q52.25625 501.99017 52.975 502.64642Q53.709373 503.30267 54.75625 503.30267Q55.990623 503.30267 56.834373 502.4433Q57.69375 501.58392 57.69375 500.3183Q57.69375 499.09955 56.896873 498.3183Q56.115623 497.53705 54.896873 497.53705Q54.396873 497.53705 53.6625 497.72455L53.85 496.17767Q54.021873 496.20892 54.13125 496.20892Q55.25625 496.20892 56.146873 495.6308Q57.053123 495.03705 57.053123 493.8183Q57.053123 492.84955 56.396873 492.20892Q55.740623 491.5683 54.709373 491.5683Q53.69375 491.5683 53.00625 492.22455Q52.31875 492.86517 52.13125 494.14642L50.365623 493.83392Q50.69375 492.0683 51.834373 491.09955Q52.975 490.1308 54.678123 490.1308Q55.85 490.1308 56.834373 490.6308Q57.81875 491.1308 58.334373 492.0058Q58.865623 492.8808 58.865623 493.84955Q58.865623 494.77142 58.365623 495.53705Q57.865623 496.30267 56.896873 496.7558Q58.1625 497.03705 58.865623 497.97455Q59.56875 498.89642 59.56875 500.27142Q59.56875 502.14642 58.19375 503.45892Q56.834373 504.7558 54.740623 504.7558Q52.85 504.7558 51.6 503.6308Q50.365623 502.5058 50.19375 500.72455ZM62.1625 504.5058L62.1625 502.5058L64.1625 502.5058L64.1625 504.5058L62.1625 504.5058ZM76.4125 502.8183L76.4125 504.5058L66.95937 504.5058Q66.94375 503.86517 67.1625 503.28705Q67.52187 502.3183 68.31875 501.3808Q69.11562 500.4433 70.61562 499.20892Q72.95937 497.30267 73.77187 496.1933Q74.6 495.0683 74.6 494.0683Q74.6 493.02142 73.85 492.30267Q73.1 491.58392 71.89687 491.58392Q70.63125 491.58392 69.86562 492.34955Q69.1 493.11517 69.1 494.45892L67.2875 494.27142Q67.475 492.2558 68.67812 491.1933Q69.89687 490.1308 71.94375 490.1308Q73.99062 490.1308 75.19375 491.27142Q76.39687 492.41205 76.39687 494.09955Q76.39687 494.95892 76.0375 495.80267Q75.69375 496.6308 74.88125 497.55267Q74.06875 498.45892 72.17812 500.0683Q70.58437 501.39642 70.13125 501.86517Q69.69375 502.33392 69.39687 502.8183L76.4125 502.8183ZM78.50625 493.6308Q78.50625 492.09955 79.27187 491.02142Q80.05312 489.9433 81.52187 489.9433Q82.86562 489.9433 83.74062 490.91205Q84.63125 491.86517 84.63125 493.74017Q84.63125 495.55267 83.74062 496.53705Q82.85 497.5058 81.5375 497.5058Q80.24062 497.5058 79.36562 496.55267Q78.50625 495.58392 78.50625 493.6308ZM81.56875 491.16205Q80.9125 491.16205 80.475 491.72455Q80.05312 492.28705 80.05312 493.80267Q80.05312 495.17767 80.49062 495.74017Q80.92812 496.30267 81.56875 496.30267Q82.24062 496.30267 82.6625 495.74017Q83.1 495.16205 83.1 493.66205Q83.1 492.27142 82.6625 491.72455Q82.225 491.16205 81.56875 491.16205ZM81.58437 505.03705L89.4125 489.9433L90.83437 489.9433L83.0375 505.03705L81.58437 505.03705ZM87.77187 501.14642Q87.77187 499.59955 88.5375 498.53705Q89.31875 497.45892 90.7875 497.45892Q92.13125 497.45892 93.00625 498.42767Q93.89687 499.3808 93.89687 501.2558Q93.89687 503.0683 93.00625 504.05267Q92.11562 505.03705 90.80312 505.03705Q89.50625 505.03705 88.63125 504.0683Q87.77187 503.08392 87.77187 501.14642ZM90.83437 498.67767Q90.17812 498.67767 89.74062 499.24017Q89.30312 499.80267 89.30312 501.3183Q89.30312 502.6933 89.74062 503.2558Q90.17812 503.8183 90.83437 503.8183Q91.50625 503.8183 91.92812 503.2558Q92.36562 502.6933 92.36562 501.17767Q92.36562 499.80267 91.92812 499.24017Q91.49062 498.67767 90.83437 498.67767Z" fill-rule="nonzero"/><path stroke="#757575" stroke-width="1.0" stroke-linecap="butt" d="M38.35 484.0058L296.13333 484.0058L327.17426 484.0058" fill-rule="nonzero"/><path fill="#9e9e9e" d="M329.17426 484.0058C329.17426 482.9012 328.27884 482.0058 327.17426 482.0058C326.06967 482.0058 325.17426 482.9012 325.17426 484.0058C325.17426 485.11038 326.06967 486.0058 327.17426 486.0058C328.27884 486.0058 329.17426 485.11038 329.17426 484.0058" fill-rule="nonzero"/><path fill="#1a1a1a" d="M49.13125 691.3944Q45.85 689.98816 40.303123 689.1288L40.5375 687.2538Q45.38125 687.80066 49.678123 689.4413L49.13125 691.3944ZM50.06875 697.09753Q44.053123 694.8319 39.365623 694.2069L39.75625 692.17566Q45.85 693.03503 50.615623 694.98816L50.06875 697.09753ZM40.225 682.09753Q46.63125 682.80066 49.44375 683.8944L48.975 685.92566Q45.06875 684.5194 39.990623 684.1288L40.225 682.09753ZM65.49062 686.0819L70.1 686.0819L70.1 687.80066L65.56875 687.80066L65.56875 689.28503Q65.56875 695.1444 59.396873 697.6444L58.146873 696.23816Q63.771873 694.36316 63.771873 689.4413L63.771873 687.80066L58.615623 687.80066L58.69375 691.78503L56.975 691.78503L56.896873 687.80066L52.521873 687.80066L52.521873 686.0819L56.896873 686.0819L56.81875 681.9413L58.459373 681.9413Q59.240623 682.0194 58.5375 682.72253L58.615623 686.0819L63.69375 686.0819L63.69375 681.3163L65.4125 681.3163Q66.19375 681.3944 65.49062 682.09753L65.49062 686.0819ZM82.36562 691.7069L80.49062 691.7069Q80.725 697.48816 73.06875 698.34753L72.52187 696.6288Q79.00625 696.0819 78.85 691.7069L76.975 691.7069L76.975 692.48816L75.4125 692.48816L75.4125 681.0038L87.36562 681.0038L87.36562 692.48816L85.80312 692.48816L85.80312 691.7069L83.92812 691.7069L83.92812 695.6913Q83.92812 696.3163 84.475 696.3163L87.2875 696.3163Q87.99062 696.3163 88.225 695.6913L88.45937 694.5194L90.17812 694.98816L89.86562 696.3163Q89.55312 697.80066 87.99062 697.80066L83.77187 697.80066Q82.36562 697.80066 82.36562 696.47253L82.36562 691.7069ZM76.975 690.22253L85.80312 690.22253L85.80312 688.5038L76.975 688.5038L76.975 690.22253ZM76.975 687.0194L85.80312 687.0194L85.80312 685.53503L76.975 685.53503L76.975 687.0194ZM76.975 684.05066L85.80312 684.05066L85.80312 682.48816L76.975 682.48816L76.975 684.05066ZM95.80312 684.7538Q94.7875 683.1913 93.45937 682.17566L94.70937 681.0038Q96.42812 682.2538 97.05312 683.5038L95.80312 684.7538ZM92.2875 696.47253L94.94375 694.91003L94.94375 689.67566L92.44375 689.67566L92.44375 688.1913L96.50625 688.1913L96.50625 694.5194Q98.30312 696.3163 100.725 696.3163L110.4125 696.3163L110.02187 697.80066L100.49062 697.80066Q97.9125 697.80066 95.725 695.6913L93.14687 698.2694L92.2875 696.47253ZM109.39687 689.59753L104.08437 689.59753L104.00625 690.30066Q107.13125 691.7069 109.08437 693.5038L107.99062 695.22253Q105.4125 692.5663 103.45937 691.7069Q102.36562 693.73816 99.00625 695.6913L98.06875 694.05066Q102.13125 692.0194 102.52187 689.59753L97.6 689.59753L97.6 688.11316L102.6 688.11316L102.6 685.53503L98.225 685.53503L98.225 684.05066L100.95937 684.05066Q100.1 682.5663 98.92812 681.47253L100.33437 680.53503Q101.42812 681.55066 102.36562 683.11316L101.11562 684.05066L103.77187 684.05066L105.64687 680.1444L107.36562 680.92566Q107.67812 681.23816 107.13125 681.3163L105.33437 684.05066L108.77187 684.05066L108.77187 685.53503L104.1625 685.53503L104.1625 688.11316L109.39687 688.11316L109.39687 689.59753ZM122.13125 689.2069Q122.13125 683.8944 121.81875 681.0038L123.38125 681.0038Q124.24062 681.0819 123.5375 681.6288Q123.77187 684.1288 123.77187 689.28503Q123.77187 695.1444 118.225 698.11316L116.89687 696.78503Q122.13125 694.28503 122.13125 689.2069ZM116.81875 691.78503Q116.11562 692.3319 115.25625 692.3319Q114.70937 692.3319 114.24062 691.86316Q113.69375 691.3163 113.69375 687.17566Q113.69375 684.05066 114.00625 681.47253L115.725 681.47253Q116.35 681.7069 115.725 682.0194Q115.33437 683.8944 115.33437 687.17566Q115.33437 690.53503 115.64687 690.53503Q115.88125 690.53503 116.27187 690.22253Q116.81875 689.7538 118.06875 688.11316L119.24062 689.28503Q117.9125 690.92566 116.81875 691.78503Z" fill-rule="nonzero"/><path fill="#9e9e9e" d="M45.803123 723.47253L44.0375 723.47253L44.0375 712.2694Q43.4125 712.8788 42.38125 713.48816Q41.35 714.0819 40.521873 714.3944L40.521873 712.6913Q42.00625 712.0038 43.1 711.0194Q44.209373 710.0194 44.6625 709.09753L45.803123 709.09753L45.803123 723.47253ZM50.178123 716.41003Q50.178123 713.8788 50.69375 712.3319Q51.225 710.7694 52.25625 709.9413Q53.2875 709.09753 54.85 709.09753Q56.00625 709.09753 56.865623 709.5663Q57.740623 710.0194 58.303123 710.8944Q58.865623 711.7694 59.19375 713.03503Q59.521873 714.28503 59.521873 716.41003Q59.521873 718.92566 58.990623 720.47253Q58.475 722.0194 57.44375 722.8788Q56.428123 723.72253 54.85 723.72253Q52.771873 723.72253 51.6 722.23816Q50.178123 720.4413 50.178123 716.41003ZM51.990623 716.41003Q51.990623 719.9413 52.803123 721.11316Q53.63125 722.2694 54.85 722.2694Q56.053123 722.2694 56.88125 721.09753Q57.709373 719.92566 57.709373 716.41003Q57.709373 712.8788 56.88125 711.72253Q56.053123 710.55066 54.834373 710.55066Q53.615623 710.55066 52.896873 711.5819Q51.990623 712.8788 51.990623 716.41003ZM62.1625 723.47253L62.1625 721.47253L64.1625 721.47253L64.1625 723.47253L62.1625 723.47253ZM69.88125 715.7069Q68.7875 715.30066 68.25625 714.5663Q67.74062 713.8163 67.74062 712.78503Q67.74062 711.22253 68.86562 710.16003Q69.99062 709.09753 71.85 709.09753Q73.725 709.09753 74.86562 710.1913Q76.00625 711.2694 76.00625 712.8319Q76.00625 713.8319 75.475 714.5663Q74.95937 715.30066 73.89687 715.7069Q75.225 716.1444 75.9125 717.09753Q76.6 718.05066 76.6 719.3788Q76.6 721.22253 75.2875 722.47253Q73.99062 723.72253 71.88125 723.72253Q69.75625 723.72253 68.45937 722.47253Q67.1625 721.2069 67.1625 719.3319Q67.1625 717.9413 67.86562 717.0038Q68.58437 716.05066 69.88125 715.7069ZM69.5375 712.72253Q69.5375 713.73816 70.19375 714.3944Q70.85 715.03503 71.88125 715.03503Q72.89687 715.03503 73.55312 714.3944Q74.20937 713.7538 74.20937 712.8319Q74.20937 711.86316 73.5375 711.2069Q72.86562 710.53503 71.86562 710.53503Q70.86562 710.53503 70.19375 711.1913Q69.5375 711.8319 69.5375 712.72253ZM68.975 719.34753Q68.975 720.09753 69.31875 720.80066Q69.67812 721.5038 70.38125 721.8944Q71.08437 722.2694 71.89687 722.2694Q73.1625 722.2694 73.975 721.4569Q74.80312 720.6444 74.80312 719.3944Q74.80312 718.1288 73.95937 717.30066Q73.11562 716.47253 71.83437 716.47253Q70.6 716.47253 69.7875 717.30066Q68.975 718.11316 68.975 719.34753ZM78.50625 712.59753Q78.50625 711.0663 79.27187 709.98816Q80.05312 708.91003 81.52187 708.91003Q82.86562 708.91003 83.74062 709.8788Q84.63125 710.8319 84.63125 712.7069Q84.63125 714.5194 83.74062 715.5038Q82.85 716.47253 81.5375 716.47253Q80.24062 716.47253 79.36562 715.5194Q78.50625 714.55066 78.50625 712.59753ZM81.56875 710.1288Q80.9125 710.1288 80.475 710.6913Q80.05312 711.2538 80.05312 712.7694Q80.05312 714.1444 80.49062 714.7069Q80.92812 715.2694 81.56875 715.2694Q82.24062 715.2694 82.6625 714.7069Q83.1 714.1288 83.1 712.6288Q83.1 711.23816 82.6625 710.6913Q82.225 710.1288 81.56875 710.1288ZM81.58437 724.0038L89.4125 708.91003L90.83437 708.91003L83.0375 724.0038L81.58437 724.0038ZM87.77187 720.11316Q87.77187 718.5663 88.5375 717.5038Q89.31875 716.42566 90.7875 716.42566Q92.13125 716.42566 93.00625 717.3944Q93.89687 718.34753 93.89687 720.22253Q93.89687 722.03503 93.00625 723.0194Q92.11562 724.0038 90.80312 724.0038Q89.50625 724.0038 88.63125 723.03503Q87.77187 722.05066 87.77187 720.11316ZM90.83437 717.6444Q90.17812 717.6444 89.74062 718.2069Q89.30312 718.7694 89.30312 720.28503Q89.30312 721.66003 89.74062 722.22253Q90.17812 722.78503 90.83437 722.78503Q91.50625 722.78503 91.92812 722.22253Q92.36562 721.66003 92.36562 720.1444Q92.36562 718.7694 91.92812 718.2069Q91.49062 717.6444 90.83437 717.6444Z" fill-rule="nonzero"/><path stroke="#757575" stroke-width="1.0" stroke-linecap="butt" d="M38.35 702.97253L296.13333 702.97253L544.2897 702.97253" fill-rule="nonzero"/><path fill="#9e9e9e" d="M546.2897 702.97253C546.2897 701.868 545.3942 700.97253 544.2897 700.97253C543.18506 700.97253 542.2897 701.868 542.2897 702.97253C542.2897 704.07715 543.18506 704.97253 544.2897 704.97253C545.3942 704.97253 546.2897 704.07715 546.2897 702.97253" fill-rule="nonzero"/><path fill="#1a1a1a" d="M1014.4313 257.9756Q1011.15 256.56934 1005.60315 255.70996L1005.8375 253.83496Q1010.6813 254.38184 1014.97815 256.02246L1014.4313 257.9756ZM1015.3688 263.6787Q1009.35315 261.4131 1004.66565 260.7881L1005.0563 258.75684Q1011.15 259.6162 1015.91565 261.56934L1015.3688 263.6787ZM1005.525 248.67871Q1011.9313 249.38184 1014.7438 250.47559L1014.275 252.50684Q1010.3688 251.10059 1005.29065 250.70996L1005.525 248.67871ZM1030.7906 252.66309L1035.4 252.66309L1035.4 254.38184L1030.8688 254.38184L1030.8688 255.86621Q1030.8688 261.7256 1024.6969 264.2256L1023.4469 262.81934Q1029.0719 260.94434 1029.0719 256.02246L1029.0719 254.38184L1023.91565 254.38184L1023.9938 258.3662L1022.275 258.3662L1022.1969 254.38184L1017.8219 254.38184L1017.8219 252.66309L1022.1969 252.66309L1022.1188 248.52246L1023.7594 248.52246Q1024.5406 248.60059 1023.8375 249.30371L1023.91565 252.66309L1028.9938 252.66309L1028.9938 247.89746L1030.7125 247.89746Q1031.4938 247.97559 1030.7906 248.67871L1030.7906 252.66309ZM1055.2438 261.95996L1055.2438 263.6787L1037.9 263.6787L1037.9 261.95996L1047.275 261.95996Q1048.9156 257.50684 1049.6188 252.97559L1051.8063 253.67871Q1052.1188 253.99121 1051.5719 254.06934Q1050.7125 258.0537 1049.0719 261.95996L1055.2438 261.95996ZM1042.7438 253.36621Q1043.9156 255.63184 1044.775 259.9287L1042.9781 260.4756Q1041.9625 256.1787 1041.1031 253.99121L1042.7438 253.36621ZM1045.5563 247.11621L1047.275 247.11621Q1048.0563 247.27246 1047.3531 247.74121L1047.3531 250.39746L1054.2281 250.39746L1054.2281 252.11621L1038.9156 252.11621L1038.9156 250.39746L1045.5563 250.39746L1045.5563 247.11621ZM1062.6656 262.50684Q1068.0563 262.6631 1069.3844 261.33496Q1070.0875 260.63184 1070.0875 259.5381Q1070.0875 258.6006 1069.3063 257.81934Q1068.6031 257.1162 1067.0406 257.1162Q1065.0094 257.1162 1063.4469 257.89746Q1062.5094 258.3662 1060.3219 260.1631L1058.9156 259.06934Q1059.3844 258.6006 1059.775 258.0537Q1060.6344 255.31934 1061.1813 252.58496Q1059.0719 252.81934 1057.3531 252.81934L1057.1188 251.25684Q1058.9156 251.25684 1061.4938 251.02246Q1061.8844 249.30371 1062.0406 247.35059L1063.525 247.74121Q1064.4625 247.97559 1063.6813 248.36621Q1063.4469 249.61621 1063.1344 250.86621Q1066.2594 250.55371 1068.0563 250.16309L1068.3688 251.80371Q1065.2438 252.19434 1062.8219 252.42871Q1062.275 254.77246 1061.7281 257.0381Q1064.5406 255.63184 1066.8063 255.63184Q1069.4625 255.63184 1070.7125 256.88184Q1071.8063 257.9756 1071.8063 259.77246Q1071.8063 261.4912 1070.7125 262.58496Q1068.9938 264.3037 1063.2125 264.2256L1062.6656 262.50684ZM1090.3688 264.45996L1089.1188 262.89746L1076.775 263.9912Q1076.6969 264.6162 1076.3844 264.3037L1075.8375 262.1162L1078.4938 262.0381Q1080.2125 259.3037 1081.4625 256.25684L1074.9 256.25684L1074.9 254.77246L1082.7906 254.77246L1082.7906 251.41309L1076.6969 251.41309L1076.6969 249.92871L1082.7906 249.92871L1082.7906 247.11621L1084.275 247.11621Q1084.9 247.19434 1084.3531 247.58496L1084.3531 249.92871L1090.4469 249.92871L1090.4469 251.41309L1084.3531 251.41309L1084.3531 254.77246L1092.2438 254.77246L1092.2438 256.25684L1083.65 256.25684Q1082.0094 259.5381 1080.3688 262.0381L1088.1813 261.56934Q1086.6969 259.8506 1085.525 258.83496L1086.6969 257.6631Q1089.1969 259.45996 1092.0094 263.20996L1090.3688 264.45996ZM1104.4313 255.78809Q1104.4313 250.47559 1104.1188 247.58496L1105.6813 247.58496Q1106.5406 247.66309 1105.8375 248.20996Q1106.0719 250.70996 1106.0719 255.86621Q1106.0719 261.7256 1100.525 264.69434L1099.1969 263.3662Q1104.4313 260.8662 1104.4313 255.78809ZM1099.1188 258.3662Q1098.4156 258.9131 1097.5563 258.9131Q1097.0094 258.9131 1096.5406 258.44434Q1095.9938 257.89746 1095.9938 253.75684Q1095.9938 250.63184 1096.3063 248.05371L1098.025 248.05371Q1098.65 248.28809 1098.025 248.60059Q1097.6344 250.47559 1097.6344 253.75684Q1097.6344 257.1162 1097.9469 257.1162Q1098.1813 257.1162 1098.5719 256.8037Q1099.1188 256.33496 1100.3688 254.69434L1101.5406 255.86621Q1100.2125 257.50684 1099.1188 258.3662ZM1113.2594 251.17871Q1114.1188 249.38184 1116.15 247.50684L1117.0094 248.28809Q1115.0563 250.08496 1114.275 251.72559Q1113.4156 253.52246 1113.4156 256.02246Q1113.4156 258.13184 1114.275 260.00684Q1115.0563 261.7256 1117.0094 263.83496L1116.15 264.69434Q1114.1969 262.50684 1113.2594 260.5537Q1112.2438 258.44434 1112.2438 256.02246Q1112.2438 253.28809 1113.2594 251.17871ZM1124.1188 264.45996L1124.1188 263.9131L1121.775 263.9131L1121.775 264.69434L1120.4469 264.69434L1120.4469 258.44434L1125.4469 258.44434L1125.4469 264.45996L1124.1188 264.45996ZM1126.3063 255.86621L1126.3063 254.38184L1129.4313 254.38184L1129.7438 254.14746L1130.7594 255.00684L1130.525 255.39746Q1129.6656 260.4756 1126.4625 263.3662L1125.6813 261.7256Q1128.5719 258.75684 1128.8844 255.86621L1126.3063 255.86621ZM1130.6813 263.13184Q1130.9938 263.13184 1130.9938 262.81934L1130.9938 252.27246L1127.4 252.27246L1127.4 250.78809L1132.5563 250.78809L1132.5563 251.72559Q1132.7125 253.60059 1133.1031 254.61621Q1134.6656 253.28809 1135.7594 251.56934L1137.2438 252.89746Q1137.3219 253.13184 1136.775 253.13184Q1135.1344 254.92871 1133.65 255.94434Q1135.2906 259.69434 1137.9469 261.33496L1137.0875 263.13184Q1134.275 261.25684 1132.5563 256.4912L1132.5563 263.3662Q1132.5563 264.6162 1131.3063 264.6162L1129.9781 264.6162L1129.7438 263.13184L1130.6813 263.13184ZM1121.775 262.6631L1124.1188 262.6631L1124.1188 259.69434L1121.775 259.69434L1121.775 262.6631ZM1120.7594 248.75684L1120.7594 247.27246L1125.3688 247.27246L1125.3688 248.75684L1120.7594 248.75684ZM1119.7438 251.49121L1119.7438 250.00684L1126.0719 250.00684L1126.0719 251.49121L1119.7438 251.49121ZM1120.7594 254.30371L1120.7594 252.81934L1125.3688 252.81934L1125.3688 254.30371L1120.7594 254.30371ZM1120.7594 257.1162L1120.7594 255.63184L1125.3688 255.63184L1125.3688 257.1162L1120.7594 257.1162ZM1132.2438 250.08496Q1130.6813 248.99121 1129.1969 248.20996L1130.2906 246.88184Q1131.9313 247.50684 1133.3375 248.67871L1132.2438 250.08496ZM1141.6969 259.77246L1141.6969 261.25684L1140.3688 261.25684L1140.3688 248.91309L1144.9781 248.91309L1144.9781 260.2412L1143.65 260.2412L1143.65 259.77246L1141.6969 259.77246ZM1143.65 250.39746L1141.6969 250.39746L1141.6969 258.2881L1143.65 258.2881L1143.65 250.39746ZM1148.4938 254.53809L1148.4938 255.16309L1146.9313 255.16309L1146.9313 247.58496L1155.9938 247.58496L1155.9938 255.16309L1154.4313 255.16309L1154.4313 254.53809L1148.4938 254.53809ZM1154.4313 248.83496L1148.4938 248.83496L1148.4938 250.47559L1154.4313 250.47559L1154.4313 248.83496ZM1154.4313 251.72559L1148.4938 251.72559L1148.4938 253.28809L1154.4313 253.28809L1154.4313 251.72559ZM1147.5563 263.6006L1147.5563 264.77246L1145.9938 264.77246L1145.9938 256.1006L1157.0094 256.1006L1157.0094 264.38184L1155.4469 264.38184L1155.4469 263.6006L1147.5563 263.6006ZM1155.4469 260.4756L1147.5563 260.4756L1147.5563 262.3506L1155.4469 262.3506L1155.4469 260.4756ZM1155.4469 257.3506L1147.5563 257.3506L1147.5563 259.2256L1155.4469 259.2256L1155.4469 257.3506ZM1168.9625 263.13184Q1172.1656 262.81934 1173.2594 261.7256Q1174.1188 260.8662 1174.1188 259.3037Q1174.1188 257.58496 1173.2594 256.7256Q1172.2438 255.70996 1170.4469 255.55371Q1169.1969 259.6162 1167.6344 261.25684L1168.1031 262.27246L1166.6188 263.3662L1166.2281 262.50684Q1164.1969 264.2256 1162.7906 264.2256Q1161.8531 264.2256 1161.0719 263.44434Q1160.2125 262.58496 1160.2125 261.1006Q1160.2125 258.44434 1162.0094 256.64746Q1163.1031 255.55371 1164.275 254.92871L1164.4313 251.95996L1161.15 252.11621L1160.8375 250.39746L1164.5094 250.31934Q1164.5875 248.52246 1164.7438 246.88184L1166.2281 246.88184Q1167.0094 247.03809 1166.3844 247.50684Q1166.2281 248.91309 1166.15 250.24121Q1169.9 250.00684 1172.5563 249.53809L1172.8688 251.25684Q1169.5875 251.64746 1166.0719 251.80371L1165.9156 254.30371Q1167.0094 253.91309 1168.9625 253.83496L1169.1969 252.58496L1170.6813 252.81934Q1171.3844 252.97559 1170.8375 253.44434L1170.7594 253.99121Q1173.1813 254.22559 1174.5094 255.55371Q1175.9938 257.0381 1175.9938 259.38184Q1175.9938 261.56934 1174.6656 262.89746Q1173.2594 264.3037 1169.9781 264.8506L1168.9625 263.13184ZM1164.5094 256.56934Q1163.8844 256.88184 1163.1031 257.6631Q1161.6969 259.06934 1161.6969 261.33496Q1161.6969 261.95996 1162.1656 262.4287Q1162.3219 262.58496 1162.7906 262.58496Q1163.9625 262.58496 1165.4469 261.1006Q1164.6656 258.75684 1164.5094 256.56934ZM1166.0719 255.78809Q1166.15 257.81934 1166.8531 259.69434Q1168.1031 257.9756 1168.65 255.39746Q1167.2438 255.39746 1166.0719 255.78809ZM1188.4313 255.78809Q1188.4313 250.47559 1188.1188 247.58496L1189.6813 247.58496Q1190.5406 247.66309 1189.8375 248.20996Q1190.0719 250.70996 1190.0719 255.86621Q1190.0719 261.7256 1184.525 264.69434L1183.1969 263.3662Q1188.4313 260.8662 1188.4313 255.78809ZM1183.1188 258.3662Q1182.4156 258.9131 1181.5563 258.9131Q1181.0094 258.9131 1180.5406 258.44434Q1179.9938 257.89746 1179.9938 253.75684Q1179.9938 250.63184 1180.3063 248.05371L1182.025 248.05371Q1182.65 248.28809 1182.025 248.60059Q1181.6344 250.47559 1181.6344 253.75684Q1181.6344 257.1162 1181.9469 257.1162Q1182.1813 257.1162 1182.5719 256.8037Q1183.1188 256.33496 1184.3688 254.69434L1185.5406 255.86621Q1184.2125 257.50684 1183.1188 258.3662ZM1197.9625 260.5537Q1197.025 262.50684 1195.0719 264.69434L1194.2125 263.83496Q1196.1656 261.7256 1196.9469 260.00684Q1197.8063 258.13184 1197.8063 256.02246Q1197.8063 253.52246 1196.9469 251.72559Q1196.1656 250.08496 1194.2125 248.28809L1195.0719 247.50684Q1197.1031 249.38184 1197.9625 251.17871Q1198.9781 253.28809 1198.9781 256.02246Q1198.9781 258.44434 1197.9625 260.5537Z" fill-rule="nonzero"/><path fill="#9e9e9e" d="M1146.4938 286.27246L1148.2438 286.0381Q1148.5563 287.5381 1149.275 288.19434Q1150.0094 288.8506 1151.0563 288.8506Q1152.2906 288.8506 1153.1344 287.9912Q1153.9938 287.13184 1153.9938 285.8662Q1153.9938 284.64746 1153.1969 283.8662Q1152.4156 283.08496 1151.1969 283.08496Q1150.6969 283.08496 1149.9625 283.27246L1150.15 281.7256Q1150.3219 281.75684 1150.4313 281.75684Q1151.5563 281.75684 1152.4469 281.1787Q1153.3531 280.58496 1153.3531 279.3662Q1153.3531 278.39746 1152.6969 277.75684Q1152.0406 277.1162 1151.0094 277.1162Q1149.9938 277.1162 1149.3063 277.77246Q1148.6188 278.4131 1148.4313 279.69434L1146.6656 279.38184Q1146.9938 277.6162 1148.1344 276.64746Q1149.275 275.6787 1150.9781 275.6787Q1152.15 275.6787 1153.1344 276.1787Q1154.1188 276.6787 1154.6344 277.5537Q1155.1656 278.4287 1155.1656 279.39746Q1155.1656 280.31934 1154.6656 281.08496Q1154.1656 281.8506 1153.1969 282.3037Q1154.4625 282.58496 1155.1656 283.52246Q1155.8688 284.44434 1155.8688 285.81934Q1155.8688 287.69434 1154.4938 289.00684Q1153.1344 290.3037 1151.0406 290.3037Q1149.15 290.3037 1147.9 289.1787Q1146.6656 288.0537 1146.4938 286.27246ZM1163.1188 290.0537L1163.1188 286.63184L1156.9 286.63184L1156.9 285.00684L1163.4313 275.7412L1164.8688 275.7412L1164.8688 285.00684L1166.8063 285.00684L1166.8063 286.63184L1164.8688 286.63184L1164.8688 290.0537L1163.1188 290.0537ZM1163.1188 285.00684L1163.1188 278.5537L1158.6344 285.00684L1163.1188 285.00684ZM1169.4625 290.0537L1169.4625 288.0537L1171.4625 288.0537L1171.4625 290.0537L1169.4625 290.0537ZM1183.6031 279.2412L1181.8531 279.38184Q1181.6188 278.3506 1181.1969 277.88184Q1180.4781 277.1162 1179.4313 277.1162Q1178.5875 277.1162 1177.9625 277.58496Q1177.1344 278.19434 1176.65 279.3662Q1176.1656 280.52246 1176.15 282.6631Q1176.7906 281.70996 1177.6969 281.2412Q1178.6188 280.77246 1179.6344 280.77246Q1181.3844 280.77246 1182.6188 282.06934Q1183.8531 283.3506 1183.8531 285.39746Q1183.8531 286.75684 1183.275 287.9131Q1182.6969 289.06934 1181.6813 289.69434Q1180.6656 290.3037 1179.3688 290.3037Q1177.1813 290.3037 1175.7906 288.69434Q1174.4 287.06934 1174.4 283.3506Q1174.4 279.20996 1175.9313 277.31934Q1177.275 275.6787 1179.5406 275.6787Q1181.2281 275.6787 1182.3063 276.63184Q1183.3844 277.56934 1183.6031 279.2412ZM1176.4313 285.4131Q1176.4313 286.31934 1176.8063 287.14746Q1177.1969 287.9756 1177.8844 288.4131Q1178.5875 288.8506 1179.3375 288.8506Q1180.4625 288.8506 1181.2594 287.95996Q1182.0563 287.0537 1182.0563 285.50684Q1182.0563 284.02246 1181.2594 283.1787Q1180.4781 282.31934 1179.275 282.31934Q1178.0875 282.31934 1177.2594 283.1787Q1176.4313 284.02246 1176.4313 285.4131ZM1185.8063 279.1787Q1185.8063 277.64746 1186.5719 276.56934Q1187.3531 275.4912 1188.8219 275.4912Q1190.1656 275.4912 1191.0406 276.45996Q1191.9313 277.4131 1191.9313 279.2881Q1191.9313 281.1006 1191.0406 282.08496Q1190.15 283.0537 1188.8375 283.0537Q1187.5406 283.0537 1186.6656 282.1006Q1185.8063 281.13184 1185.8063 279.1787ZM1188.8688 276.70996Q1188.2125 276.70996 1187.775 277.27246Q1187.3531 277.83496 1187.3531 279.3506Q1187.3531 280.7256 1187.7906 281.2881Q1188.2281 281.8506 1188.8688 281.8506Q1189.5406 281.8506 1189.9625 281.2881Q1190.4 280.70996 1190.4 279.20996Q1190.4 277.81934 1189.9625 277.27246Q1189.525 276.70996 1188.8688 276.70996ZM1188.8844 290.58496L1196.7125 275.4912L1198.1344 275.4912L1190.3375 290.58496L1188.8844 290.58496ZM1195.0719 286.69434Q1195.0719 285.14746 1195.8375 284.08496Q1196.6188 283.00684 1198.0875 283.00684Q1199.4313 283.00684 1200.3063 283.9756Q1201.1969 284.9287 1201.1969 286.8037Q1201.1969 288.6162 1200.3063 289.6006Q1199.4156 290.58496 1198.1031 290.58496Q1196.8063 290.58496 1195.9313 289.6162Q1195.0719 288.63184 1195.0719 286.69434ZM1198.1344 284.2256Q1197.4781 284.2256 1197.0406 284.7881Q1196.6031 285.3506 1196.6031 286.8662Q1196.6031 288.2412 1197.0406 288.8037Q1197.4781 289.3662 1198.1344 289.3662Q1198.8063 289.3662 1199.2281 288.8037Q1199.6656 288.2412 1199.6656 286.7256Q1199.6656 285.3506 1199.2281 284.7881Q1198.7906 284.2256 1198.1344 284.2256Z" fill-rule="nonzero"/><path stroke="#757575" stroke-width="1.0" stroke-linecap="butt" d="M1202.65 269.5537L944.86664 269.5537L888.2128 269.5537" fill-rule="nonzero"/><path fill="#9e9e9e" d="M890.2128 269.5537C890.2128 268.44913 889.3174 267.5537 888.2128 267.5537C887.1083 267.5537 886.2128 268.44913 886.2128 269.5537C886.2128 270.65826 887.1083 271.5537 888.2128 271.5537C889.3174 271.5537 890.2128 270.65826 890.2128 269.5537" fill-rule="nonzero"/><path fill="#1a1a1a" d="M1015.4313 660.2041Q1012.15 658.79785 1006.60315 657.9385L1006.8375 656.0635Q1011.6813 656.61035 1015.97815 658.251L1015.4313 660.2041ZM1016.3688 665.9072Q1010.35315 663.6416 1005.66565 663.0166L1006.0563 660.98535Q1012.15 661.8447 1016.91565 663.79785L1016.3688 665.9072ZM1006.525 650.9072Q1012.9313 651.61035 1015.7438 652.7041L1015.275 654.73535Q1011.3688 653.3291 1006.29065 652.9385L1006.525 650.9072ZM1031.7906 654.8916L1036.4 654.8916L1036.4 656.61035L1031.8688 656.61035L1031.8688 658.0947Q1031.8688 663.9541 1025.6969 666.4541L1024.4469 665.04785Q1030.0719 663.17285 1030.0719 658.251L1030.0719 656.61035L1024.9156 656.61035L1024.9938 660.5947L1023.275 660.5947L1023.1969 656.61035L1018.8219 656.61035L1018.8219 654.8916L1023.1969 654.8916L1023.1188 650.751L1024.7594 650.751Q1025.5406 650.8291 1024.8375 651.5322L1024.9156 654.8916L1029.9938 654.8916L1029.9938 650.126L1031.7125 650.126Q1032.4938 650.2041 1031.7906 650.9072L1031.7906 654.8916ZM1056.2438 664.1885L1056.2438 665.9072L1038.9 665.9072L1038.9 664.1885L1048.275 664.1885Q1049.9156 659.73535 1050.6188 655.2041L1052.8063 655.9072Q1053.1188 656.2197 1052.5719 656.29785Q1051.7125 660.2822 1050.0719 664.1885L1056.2438 664.1885ZM1043.7438 655.5947Q1044.9156 657.86035 1045.775 662.1572L1043.9781 662.7041Q1042.9625 658.4072 1042.1031 656.2197L1043.7438 655.5947ZM1046.5563 649.3447L1048.275 649.3447Q1049.0563 649.501 1048.3531 649.9697L1048.3531 652.626L1055.2281 652.626L1055.2281 654.3447L1039.9156 654.3447L1039.9156 652.626L1046.5563 652.626L1046.5563 649.3447ZM1063.6656 664.73535Q1069.0563 664.8916 1070.3844 663.5635Q1071.0875 662.86035 1071.0875 661.7666Q1071.0875 660.8291 1070.3063 660.04785Q1069.6031 659.3447 1068.0406 659.3447Q1066.0094 659.3447 1064.4469 660.126Q1063.5094 660.5947 1061.3219 662.3916L1059.9156 661.29785Q1060.3844 660.8291 1060.775 660.2822Q1061.6344 657.54785 1062.1813 654.8135Q1060.0719 655.04785 1058.3531 655.04785L1058.1188 653.48535Q1059.9156 653.48535 1062.4938 653.251Q1062.8844 651.5322 1063.0406 649.5791L1064.525 649.9697Q1065.4625 650.2041 1064.6813 650.5947Q1064.4469 651.8447 1064.1344 653.0947Q1067.2594 652.7822 1069.0563 652.3916L1069.3688 654.0322Q1066.2438 654.42285 1063.8219 654.6572Q1063.275 657.001 1062.7281 659.2666Q1065.5406 657.86035 1067.8063 657.86035Q1070.4625 657.86035 1071.7125 659.11035Q1072.8063 660.2041 1072.8063 662.001Q1072.8063 663.7197 1071.7125 664.8135Q1069.9938 666.5322 1064.2125 666.4541L1063.6656 664.73535ZM1091.3688 666.6885L1090.1188 665.126L1077.775 666.2197Q1077.6969 666.8447 1077.3844 666.5322L1076.8375 664.3447L1079.4938 664.2666Q1081.2125 661.5322 1082.4625 658.48535L1075.9 658.48535L1075.9 657.001L1083.7906 657.001L1083.7906 653.6416L1077.6969 653.6416L1077.6969 652.1572L1083.7906 652.1572L1083.7906 649.3447L1085.275 649.3447Q1085.9 649.42285 1085.3531 649.8135L1085.3531 652.1572L1091.4469 652.1572L1091.4469 653.6416L1085.3531 653.6416L1085.3531 657.001L1093.2438 657.001L1093.2438 658.48535L1084.65 658.48535Q1083.0094 661.7666 1081.3688 664.2666L1089.1813 663.79785Q1087.6969 662.0791 1086.525 661.0635L1087.6969 659.8916Q1090.1969 661.6885 1093.0094 665.4385L1091.3688 666.6885ZM1105.4313 658.0166Q1105.4313 652.7041 1105.1188 649.8135L1106.6813 649.8135Q1107.5406 649.8916 1106.8375 650.4385Q1107.0719 652.9385 1107.0719 658.0947Q1107.0719 663.9541 1101.525 666.92285L1100.1969 665.5947Q1105.4313 663.0947 1105.4313 658.0166ZM1100.1188 660.5947Q1099.4156 661.1416 1098.5563 661.1416Q1098.0094 661.1416 1097.5406 660.67285Q1096.9938 660.126 1096.9938 655.98535Q1096.9938 652.86035 1097.3063 650.2822L1099.025 650.2822Q1099.65 650.5166 1099.025 650.8291Q1098.6344 652.7041 1098.6344 655.98535Q1098.6344 659.3447 1098.9469 659.3447Q1099.1813 659.3447 1099.5719 659.0322Q1100.1188 658.5635 1101.3688 656.92285L1102.5406 658.0947Q1101.2125 659.73535 1100.1188 660.5947ZM1114.2594 653.4072Q1115.1188 651.61035 1117.15 649.73535L1118.0094 650.5166Q1116.0563 652.3135 1115.275 653.9541Q1114.4156 655.751 1114.4156 658.251Q1114.4156 660.36035 1115.275 662.23535Q1116.0563 663.9541 1118.0094 666.0635L1117.15 666.92285Q1115.1969 664.73535 1114.2594 662.7822Q1113.2438 660.67285 1113.2438 658.251Q1113.2438 655.5166 1114.2594 653.4072ZM1125.1188 666.6885L1125.1188 666.1416L1122.775 666.1416L1122.775 666.92285L1121.4469 666.92285L1121.4469 660.67285L1126.4469 660.67285L1126.4469 666.6885L1125.1188 666.6885ZM1127.3063 658.0947L1127.3063 656.61035L1130.4313 656.61035L1130.7438 656.376L1131.7594 657.23535L1131.525 657.626Q1130.6656 662.7041 1127.4625 665.5947L1126.6813 663.9541Q1129.5719 660.98535 1129.8844 658.0947L1127.3063 658.0947ZM1131.6813 665.36035Q1131.9938 665.36035 1131.9938 665.04785L1131.9938 654.501L1128.4 654.501L1128.4 653.0166L1133.5563 653.0166L1133.5563 653.9541Q1133.7125 655.8291 1134.1031 656.8447Q1135.6656 655.5166 1136.7594 653.79785L1138.2438 655.126Q1138.3219 655.36035 1137.775 655.36035Q1136.1344 657.1572 1134.65 658.17285Q1136.2906 661.92285 1138.9469 663.5635L1138.0875 665.36035Q1135.275 663.48535 1133.5563 658.7197L1133.5563 665.5947Q1133.5563 666.8447 1132.3063 666.8447L1130.9781 666.8447L1130.7438 665.36035L1131.6813 665.36035ZM1122.775 664.8916L1125.1188 664.8916L1125.1188 661.92285L1122.775 661.92285L1122.775 664.8916ZM1121.7594 650.98535L1121.7594 649.501L1126.3688 649.501L1126.3688 650.98535L1121.7594 650.98535ZM1120.7438 653.7197L1120.7438 652.23535L1127.0719 652.23535L1127.0719 653.7197L1120.7438 653.7197ZM1121.7594 656.5322L1121.7594 655.04785L1126.3688 655.04785L1126.3688 656.5322L1121.7594 656.5322ZM1121.7594 659.3447L1121.7594 657.86035L1126.3688 657.86035L1126.3688 659.3447L1121.7594 659.3447ZM1133.2438 652.3135Q1131.6813 651.2197 1130.1969 650.4385L1131.2906 649.11035Q1132.9313 649.73535 1134.3375 650.9072L1133.2438 652.3135ZM1142.6969 662.001L1142.6969 663.48535L1141.3688 663.48535L1141.3688 651.1416L1145.9781 651.1416L1145.9781 662.4697L1144.65 662.4697L1144.65 662.001L1142.6969 662.001ZM1144.65 652.626L1142.6969 652.626L1142.6969 660.5166L1144.65 660.5166L1144.65 652.626ZM1149.4938 656.7666L1149.4938 657.3916L1147.9313 657.3916L1147.9313 649.8135L1156.9938 649.8135L1156.9938 657.3916L1155.4313 657.3916L1155.4313 656.7666L1149.4938 656.7666ZM1155.4313 651.0635L1149.4938 651.0635L1149.4938 652.7041L1155.4313 652.7041L1155.4313 651.0635ZM1155.4313 653.9541L1149.4938 653.9541L1149.4938 655.5166L1155.4313 655.5166L1155.4313 653.9541ZM1148.5563 665.8291L1148.5563 667.001L1146.9938 667.001L1146.9938 658.3291L1158.0094 658.3291L1158.0094 666.61035L1156.4469 666.61035L1156.4469 665.8291L1148.5563 665.8291ZM1156.4469 662.7041L1148.5563 662.7041L1148.5563 664.5791L1156.4469 664.5791L1156.4469 662.7041ZM1156.4469 659.5791L1148.5563 659.5791L1148.5563 661.4541L1156.4469 661.4541L1156.4469 659.5791ZM1172.3844 656.4541Q1173.2438 656.61035 1172.5406 657.0791L1172.5406 661.61035Q1174.4938 662.23535 1176.6031 663.3291L1175.6656 664.8135Q1173.9469 663.79785 1172.5406 663.3291Q1172.3063 664.9697 1171.525 665.751Q1170.5875 666.6885 1168.9469 666.6885Q1166.7594 666.6885 1165.9 665.8291Q1165.1188 665.04785 1165.1188 663.79785Q1165.1188 662.7822 1165.9 662.001Q1166.9156 660.98535 1168.8688 660.98535Q1170.1969 660.98535 1170.9781 661.2197L1170.9781 656.4541L1172.3844 656.4541ZM1164.025 654.5791Q1162.775 654.73535 1160.9 654.73535L1160.6656 653.0947Q1162.6188 653.0947 1164.5719 652.9385Q1164.9625 651.5322 1165.5094 649.1885L1166.9156 649.6572Q1167.6969 649.9697 1166.9156 650.2822L1166.2125 652.7822Q1167.5406 652.626 1168.9469 652.23535L1169.3375 653.876Q1167.15 654.3447 1165.7438 654.42285Q1164.4938 658.4072 1162.0719 663.0947L1160.5094 662.3135Q1162.9313 658.0166 1164.025 654.5791ZM1171.525 652.23535Q1173.7125 652.9385 1176.7594 654.11035L1176.0563 655.751Q1172.775 654.3447 1170.9 653.79785L1171.525 652.23535ZM1170.9781 662.7041Q1170.0406 662.3916 1168.8688 662.3916Q1167.6188 662.3916 1167.15 662.86035Q1166.7594 663.251 1166.7594 663.79785Q1166.7594 664.3447 1167.0719 664.6572Q1167.5406 665.126 1168.7125 665.126Q1169.8063 665.126 1170.275 664.6572Q1170.9781 663.9541 1170.9781 662.7041ZM1192.1813 662.4697Q1188.8219 666.1416 1184.9156 666.1416Q1182.1031 666.1416 1180.775 664.8135Q1179.7594 663.79785 1179.7594 660.9072L1179.7594 650.4385L1181.4 650.4385Q1182.1031 650.5947 1181.5563 651.0635L1181.5563 660.9072Q1181.5563 662.86035 1182.2594 663.5635Q1183.1188 664.42285 1184.8375 664.42285Q1187.8844 664.42285 1191.0094 660.98535L1192.1813 662.4697ZM1197.9625 662.7822Q1197.025 664.73535 1195.0719 666.92285L1194.2125 666.0635Q1196.1656 663.9541 1196.9469 662.23535Q1197.8063 660.36035 1197.8063 658.251Q1197.8063 655.751 1196.9469 653.9541Q1196.1656 652.3135 1194.2125 650.5166L1195.0719 649.73535Q1197.1031 651.61035 1197.9625 653.4072Q1198.9781 655.5166 1198.9781 658.251Q1198.9781 660.67285 1197.9625 662.7822Z" fill-rule="nonzero"/><path fill="#9e9e9e" d="M1153.1031 692.2822L1151.3375 692.2822L1151.3375 681.0791Q1150.7125 681.6885 1149.6813 682.29785Q1148.65 682.8916 1147.8219 683.2041L1147.8219 681.501Q1149.3063 680.8135 1150.4 679.8291Q1151.5094 678.8291 1151.9625 677.9072L1153.1031 677.9072L1153.1031 692.2822ZM1163.1188 692.2822L1163.1188 688.86035L1156.9 688.86035L1156.9 687.23535L1163.4313 677.9697L1164.8688 677.9697L1164.8688 687.23535L1166.8063 687.23535L1166.8063 688.86035L1164.8688 688.86035L1164.8688 692.2822L1163.1188 692.2822ZM1163.1188 687.23535L1163.1188 680.7822L1158.6344 687.23535L1163.1188 687.23535ZM1169.4625 692.2822L1169.4625 690.2822L1171.4625 690.2822L1171.4625 692.2822L1169.4625 692.2822ZM1181.1031 692.2822L1179.3375 692.2822L1179.3375 681.0791Q1178.7125 681.6885 1177.6813 682.29785Q1176.65 682.8916 1175.8219 683.2041L1175.8219 681.501Q1177.3063 680.8135 1178.4 679.8291Q1179.5094 678.8291 1179.9625 677.9072L1181.1031 677.9072L1181.1031 692.2822ZM1185.8063 681.4072Q1185.8063 679.876 1186.5719 678.79785Q1187.3531 677.7197 1188.8219 677.7197Q1190.1656 677.7197 1191.0406 678.6885Q1191.9313 679.6416 1191.9313 681.5166Q1191.9313 683.3291 1191.0406 684.3135Q1190.15 685.2822 1188.8375 685.2822Q1187.5406 685.2822 1186.6656 684.3291Q1185.8063 683.36035 1185.8063 681.4072ZM1188.8688 678.9385Q1188.2125 678.9385 1187.775 679.501Q1187.3531 680.0635 1187.3531 681.5791Q1187.3531 682.9541 1187.7906 683.5166Q1188.2281 684.0791 1188.8688 684.0791Q1189.5406 684.0791 1189.9625 683.5166Q1190.4 682.9385 1190.4 681.4385Q1190.4 680.04785 1189.9625 679.501Q1189.525 678.9385 1188.8688 678.9385ZM1188.8844 692.8135L1196.7125 677.7197L1198.1344 677.7197L1190.3375 692.8135L1188.8844 692.8135ZM1195.0719 688.92285Q1195.0719 687.376 1195.8375 686.3135Q1196.6188 685.23535 1198.0875 685.23535Q1199.4313 685.23535 1200.3063 686.2041Q1201.1969 687.1572 1201.1969 689.0322Q1201.1969 690.8447 1200.3063 691.8291Q1199.4156 692.8135 1198.1031 692.8135Q1196.8063 692.8135 1195.9313 691.8447Q1195.0719 690.86035 1195.0719 688.92285ZM1198.1344 686.4541Q1197.4781 686.4541 1197.0406 687.0166Q1196.6031 687.5791 1196.6031 689.0947Q1196.6031 690.4697 1197.0406 691.0322Q1197.4781 691.5947 1198.1344 691.5947Q1198.8063 691.5947 1199.2281 691.0322Q1199.6656 690.4697 1199.6656 688.9541Q1199.6656 687.5791 1199.2281 687.0166Q1198.7906 686.4541 1198.1344 686.4541Z" fill-rule="nonzero"/><path stroke="#757575" stroke-width="1.0" stroke-linecap="butt" d="M1202.65 671.7822L944.86664 671.7822L772.4649 671.7822" fill-rule="nonzero"/><path fill="#9e9e9e" d="M774.4649 671.7822C774.4649 670.6777 773.56946 669.7822 772.4649 669.7822C771.3603 669.7822 770.4649 670.6777 770.4649 671.7822C770.4649 672.8868 771.3603 673.7822 772.4649 673.7822C773.56946 673.7822 774.4649 672.8868 774.4649 671.7822" fill-rule="nonzero"/><path fill="#757575" d="M59.06875 55.6625L59.06875 58.475L39.6625 58.475L39.6625 55.6625L47.81875 55.6625L47.81875 47.13125L41.25625 47.13125L41.25625 44.31875L57.19375 44.31875L57.19375 47.13125L50.725 47.13125L50.725 55.6625L59.06875 55.6625ZM74.5375 48.25625L61.50625 48.25625L61.50625 45.44375L77.44375 45.44375L77.44375 59.6L74.5375 59.6L74.5375 58.56875L61.50625 58.56875L61.50625 55.75625L74.5375 55.75625L74.5375 48.25625ZM100.56875 55.6625L100.56875 58.475L81.1625 58.475L81.1625 55.6625L89.31875 55.6625L89.31875 47.13125L82.75625 47.13125L82.75625 44.31875L98.69375 44.31875L98.69375 47.13125L92.225 47.13125L92.225 55.6625L100.56875 55.6625ZM116.0375 48.25625L103.00625 48.25625L103.00625 45.44375L118.94375 45.44375L118.94375 59.6L116.0375 59.6L116.0375 58.56875L103.00625 58.56875L103.00625 55.75625L116.0375 55.75625L116.0375 48.25625ZM133.56876 51.303123Q133.725 57.740623 127.00625 61.959373L124.88125 59.584373Q130.63126 56.475 130.63126 51.25625L130.63126 46.85L132.99063 46.85Q134.725 47.0375 133.5375 48.053123L133.5375 49.56875Q136.27188 47.521873 137.55313 45.75625L122.69375 46.303123L122.44375 43.396873L139.85 42.9125L140.69376 42.678123L142.27188 44.553123Q143.08438 45.646873 141.67813 45.475Q138.95938 48.990623 134.74063 52.4125L133.56876 51.303123ZM161.81876 47.13125L167.35 47.13125L167.35 49.94375L161.9125 49.94375L161.9125 51.35Q161.9125 58.63125 154.02188 61.834373L151.975 59.521873Q159.00626 57.178123 159.00626 51.5375L159.00626 49.94375L153.56876 49.94375L153.6625 54.725L150.85 54.725L150.75626 49.94375L145.50626 49.94375L145.50626 47.13125L150.75626 47.13125L150.6625 42.1625L153.02188 42.1625Q154.77188 42.334373 153.475 43.63125L153.55313 47.13125L158.9125 47.13125L158.9125 41.4125L161.36563 41.4125Q163.11563 41.584373 161.81876 42.88125L161.81876 47.13125ZM163.1 40.7875Q164.89688 42.365623 166.6625 44.459373L164.86563 45.975Q163.14688 43.834373 161.56876 42.475L163.1 40.7875ZM164.88126 39.209373Q166.77188 40.771873 168.42813 42.865623L166.63126 44.396873Q165.02188 42.240623 163.33438 40.896873L164.88126 39.209373ZM173.69376 59.865623Q183.14688 57.428123 184.1625 50.6L169.975 50.6L169.975 47.7875L184.63126 47.7875L185.58438 47.475L187.44376 48.6Q188.475 49.459373 187.38126 50.00625Q185.86563 59.428123 175.94376 62.365623L173.69376 59.865623ZM185.35 45.25625L171.6625 45.25625L171.6625 42.44375L185.35 42.44375L185.35 45.25625ZM206.74063 47.428123Q204.95938 57.615623 194.6 62.209373L192.35 59.834373Q201.86563 55.959373 203.61563 47.4125L196.7875 47.4125Q194.70938 50.834373 192.11563 53.225L189.58438 51.584373Q194.725 46.928123 196.20938 40.740623L198.77188 41.63125Q200.13126 42.303123 198.74063 42.81875Q198.4125 43.896873 198.0375 44.6L204.06876 44.6L205.06876 44.0375L206.95938 45.928123Q208.05313 47.021873 206.74063 47.428123ZM222.00626 47.00625Q220.4125 56.31875 218.08438 58.646873Q216.75626 59.975 215.2875 59.975Q213.63126 59.975 212.67813 59.021873Q210.31876 56.6625 210.31876 53.13125Q210.31876 48.85 213.33438 45.834373Q216.63126 42.5375 221.38126 42.5375Q225.6625 42.5375 228.11563 44.990623Q230.85 47.725 230.85 51.44375Q230.85 55.44375 228.30313 57.990623Q226.6625 59.63125 223.08438 61.271873L220.49063 58.678123Q224.27188 57.490623 226.08438 55.678123Q227.75626 54.00625 227.75626 51.63125Q227.75626 48.7875 225.89688 46.928123Q224.05313 45.06875 221.42813 45.19375L221.81876 45.38125Q223.69376 46.1625 222.00626 47.00625ZM219.06876 45.459373Q217.25626 45.88125 215.55313 47.584373Q213.225 49.9125 213.225 53.31875Q213.225 55.31875 214.52188 56.615623Q214.69376 56.7875 215.1 56.7875Q215.50626 56.7875 216.05313 56.240623Q218.11563 54.178123 219.06876 45.459373ZM253.81876 55.6625L253.81876 58.475L234.4125 58.475L234.4125 55.6625L242.56876 55.6625L242.56876 47.13125L236.00626 47.13125L236.00626 44.31875L251.94376 44.31875L251.94376 47.13125L245.475 47.13125L245.475 55.6625L253.81876 55.6625ZM275.19376 48.975Q269.99063 59.771873 258.30313 60.334373Q257.6 62.1625 256.75626 60.303123L255.85 57.365623Q268.2875 57.06875 272.6 47.115623L275.19376 48.975ZM261.52188 49.615623Q258.74063 47.053123 256.17813 45.334373L258.24063 42.7875Q260.52188 44.209373 263.81876 47.303123L261.52188 49.615623ZM287.38126 50.975L278.00626 50.975L278.00626 48.1625L297.975 48.1625L297.975 50.975L290.2875 50.975L290.2875 51.81875Q290.2875 57.896873 285.70938 62.053123L283.20938 60.1625Q287.38126 56.88125 287.38126 51.81875L287.38126 50.975ZM281.38126 45.25625L281.38126 42.44375L293.6625 42.44375L293.6625 45.25625L281.38126 45.25625ZM294.55313 40.553123Q296.02188 42.021873 297.64688 44.4125L295.725 45.7875Q294.20938 43.615623 292.63126 41.803123L294.55313 40.553123ZM296.80313 39.31875Q298.25626 40.896873 299.9125 43.084373L297.99063 44.459373Q296.2875 42.13125 294.86563 40.709373L296.80313 39.31875ZM310.85 62.225L308.225 62.225L308.225 53.896873Q306.74063 55.0375 302.31876 57.25625L300.50626 55.06875Q309.74063 50.584373 313.19376 45.178123L315.11563 46.646873Q316.2875 47.63125 314.70938 47.94375Q313.17813 49.834373 310.85 51.803123L310.85 62.225ZM337.44376 48.975Q332.24063 59.771873 320.55313 60.334373Q319.85 62.1625 319.00626 60.303123L318.1 57.365623Q330.5375 57.06875 334.85 47.115623L337.44376 48.975ZM323.77188 49.615623Q320.99063 47.053123 318.42813 45.334373L320.49063 42.7875Q322.77188 44.209373 326.06876 47.303123L323.77188 49.615623ZM356.99063 47.428123Q355.20938 57.615623 344.85 62.209373L342.6 59.834373Q352.11563 55.959373 353.86563 47.4125L347.0375 47.4125Q344.95938 50.834373 342.36563 53.225L339.83438 51.584373Q344.975 46.928123 346.45938 40.740623L349.02188 41.63125Q350.38126 42.303123 348.99063 42.81875Q348.6625 43.896873 348.2875 44.6L354.31876 44.6L355.31876 44.0375L357.20938 45.928123Q358.30313 47.021873 356.99063 47.428123ZM357.14688 45.428123Q355.44376 42.990623 353.725 41.615623L355.5375 40.06875Q357.4125 41.725 359.05313 43.9125L357.14688 45.428123ZM359.9125 44.31875Q358.1625 42.13125 356.67813 40.771873L358.33438 39.115623Q360.0375 40.69375 361.56876 42.6625L359.9125 44.31875ZM380.45938 57.021873Q377.14688 53.396873 375.1625 51.63125Q374.06876 55.053123 369.63126 57.959373L367.86563 55.459373Q373.2875 52.25625 373.2875 46.6625L368.225 46.6625L368.225 61.75625L365.31876 61.75625L365.31876 44.13125L373.38126 44.13125L373.38126 40.85L375.85 40.85Q377.725 41.225 376.2875 42.178123L376.2875 44.13125L384.725 44.13125L384.725 59.31875Q384.725 61.56875 382.56876 61.56875L380.00626 61.56875L379.49063 58.75625L381.81876 58.75625Q381.81876 58.75625 381.81876 58.75625L381.81876 46.6625L376.19376 46.6625Q376.19376 47.725 375.95938 48.928123Q379.44376 51.25625 382.30313 54.31875L380.45938 57.021873ZM409.99063 62.1Q403.86563 58.225 403.225 50.6L401.50626 50.6L401.50626 53.225Q401.50626 58.975 399.00626 62.56875L397.17813 60.35Q398.88126 58.1625 398.88126 53.225L398.88126 41.4125L409.75626 41.4125L409.75626 51.5375L407.13126 51.5375L407.13126 50.6L405.83438 50.6Q406.00626 56.1 411.475 59.365623L409.99063 62.1ZM407.13126 43.94375L401.50626 43.94375L401.50626 48.06875L407.13126 48.06875L407.13126 43.94375ZM398.88126 44.13125L398.88126 46.6625L388.6625 46.6625L388.6625 44.13125L398.88126 44.13125ZM390.25626 40.85L397.38126 40.85L397.38126 43.38125L390.25626 43.38125L390.25626 40.85ZM397.38126 50.69375L397.38126 53.225L390.25626 53.225L390.25626 50.69375L397.38126 50.69375ZM397.38126 47.4125L397.38126 49.94375L390.25626 49.94375L390.25626 47.4125L397.38126 47.4125ZM397.6625 54.06875L397.6625 62.13125L395.31876 62.13125L395.31876 61.38125L392.225 61.38125L392.225 62.4125L389.88126 62.4125L389.88126 54.06875L397.6625 54.06875ZM392.225 56.31875L392.225 59.13125L395.31876 59.13125L395.31876 56.31875L392.225 56.31875Z" fill-rule="nonzero"/></svg>